<?xml version="1.0" encoding="UTF-8"?><svg id="Layer_1" xmlns="http://www.w3.org/2000/svg" viewBox="0 0 250 87"><defs><style>.cls-1{fill:#eea837;}.cls-2{fill:#1f5f86;}.cls-3{fill:#1a4f3e;}.cls-4{fill:#502a5c;}</style></defs><g><path class="cls-1" d="M92.98,61.42c5.39-2.74,8.3-9.61,10.53-14.98,1.84-4.59,4.48-9.36,8.73-12.23,1.41-.9,3.08-1.71,4.79-1.59-1.53,.62-2.69,1.7-3.71,2.85-5.48,6.05-6.31,14.77-11.73,20.92-2.17,2.48-5.15,4.98-8.6,5.02h0Z"/><path class="cls-1" d="M150.22,61.42c-3.46-.04-6.44-2.54-8.6-5.02-5.42-6.15-6.26-14.87-11.73-20.92-1.02-1.15-2.19-2.23-3.71-2.85,1.71-.13,3.38,.68,4.79,1.59,4.25,2.87,6.89,7.64,8.73,12.23,2.23,5.37,5.14,12.24,10.53,14.98h0Z"/></g><path class="cls-1" d="M121.6,24.5c2.29,3.95,2.31,9.19,0,13.13-2.31-3.94-2.29-9.18,0-13.13h0Z"/><g><path class="cls-1" d="M114.01,38.27c1.57,.06,3.1,.51,4.49,1.24,.71,.37,1.62,.62,1.99,1.42,.44,.86,.53,1.82,.1,2.79l-.3,.16c-.98-.14-1.61-.32-2.35-.72-.6-.31-.72-1.04-1.13-1.53-.43-.53-.88-1.04-1.36-1.53-.48-.52-1.01-1.01-1.56-1.52l.12-.32h0Z"/><path class="cls-1" d="M129.31,38.59c-1.25,1.22-2.62,2.35-3.42,3.91-.61,1.02-1.78,1.16-2.97,1.39l-.3-.16c-.43-.98-.33-1.93,.1-2.79,.63-1.09,2.04-1.35,3.07-1.92,1.1-.41,2.23-.7,3.41-.74l.12,.32h0Z"/></g><g><path class="cls-4" d="M111.1,43.67c2.05-.26,4.14,.37,5.95,1.33,.91,.49,1.95,.9,2.56,1.77,.62,.84,1.07,1.83,1.09,3.05l-.21,.17c-.61-.13-1.09-.34-1.54-.56-1.36-.54-2.18-1.61-3.13-2.64-.68-.6-1.39-1.16-2.18-1.66-.77-.51-1.63-.92-2.54-1.19v-.27h0Z"/><path class="cls-4" d="M132.1,43.94c-1.8,.52-3.34,1.64-4.72,2.84-.95,1.02-1.77,2.1-3.13,2.64-.45,.22-.92,.43-1.54,.56l-.21-.17c.02-1.22,.47-2.2,1.09-3.05,.61-.87,1.65-1.28,2.56-1.77,1.81-.96,3.9-1.6,5.95-1.33v.27h0Z"/></g><g><path class="cls-3" d="M107.71,49.74c2.35-.42,4.78-.22,7.1,.36,1.16,.29,2.47,.41,3.41,1.23,.96,.77,1.77,1.77,2.13,3.19l-.2,.27c-.76,.07-1.36-.02-1.95-.11-2.4-.22-3.71-1.93-5.82-2.8-1.5-.74-3.05-1.35-4.68-1.81v-.34h0Z"/><path class="cls-3" d="M135.49,50.07c-2.16,.6-4.18,1.49-6.13,2.55-.94,.51-1.69,1.34-2.74,1.66-1.17,.35-2.24,.59-3.57,.5l-.2-.27c.36-1.42,1.17-2.43,2.13-3.19,.95-.82,2.25-.93,3.41-1.23,2.32-.58,4.75-.78,7.1-.36v.34h0Z"/></g><g><path class="cls-2" d="M102.12,59.02c5.66-6.07,16.38-4.56,19.31,3.48-6.42-5.02-11.57-5.49-19.31-3.48h0Z"/><path class="cls-2" d="M141.08,59.02c-7.74-2.01-12.89-1.54-19.31,3.48,2.93-8.04,13.65-9.54,19.31-3.48h0Z"/></g><g><path class="cls-1" d="M1.7,61.08v-1.51h.3c1.34,0,2.2-.21,2.6-.64,.4-.43,.6-1.48,.6-3.17v-22.92c0-1.7-.2-2.76-.59-3.17-.39-.41-1.27-.62-2.61-.62h-.3v-1.53H13.24c3.57,0,6.22,.68,7.94,2.04s2.58,3.47,2.58,6.31c0,2.18-.59,3.94-1.76,5.28-1.17,1.35-2.91,2.26-5.22,2.75,2.8,.59,4.87,1.57,6.22,2.92,1.35,1.35,2.02,3.14,2.02,5.36,0,1.6-.28,3-.83,4.2-.56,1.2-1.39,2.2-2.5,2.99-.86,.61-1.97,1.04-3.33,1.3-1.36,.26-3.47,.39-6.3,.39H1.7Zm7.46-17.89h3.84c2.4,0,4.16-.56,5.26-1.69,1.1-1.13,1.66-2.91,1.66-5.34,0-2.62-.53-4.45-1.59-5.51-1.06-1.06-3.02-1.59-5.87-1.59h-3.29v14.13Zm0,16.39h3.12c3.15,0,5.34-.56,6.59-1.69,1.24-1.13,1.87-3.05,1.87-5.77s-.67-4.57-2.02-5.72c-1.35-1.15-3.6-1.72-6.75-1.72h-2.8v14.9Z"/><path class="cls-1" d="M36.69,37.02v1.1h-.26c-1.1,0-1.81,.15-2.14,.45-.32,.3-.48,1.06-.48,2.27v16.43c0,1.22,.16,1.98,.48,2.28,.32,.3,1.03,.45,2.14,.45h.26v1.08c-.81-.05-1.57-.1-2.28-.12-.71-.03-1.4-.04-2.07-.04s-1.38,.01-2.12,.04c-.74,.03-1.52,.07-2.37,.12v-1.08h.26c1.1,0,1.81-.15,2.14-.45,.32-.3,.48-1.06,.48-2.28v-16.43c0-1.21-.16-1.97-.48-2.27-.32-.3-1.03-.45-2.14-.45h-.26v-1.1c.67,.04,1.36,.08,2.07,.1,.71,.02,1.49,.03,2.32,.03s1.63-.01,2.37-.03c.74-.02,1.43-.05,2.09-.1Z"/><path class="cls-1" d="M44.04,56.29v.44c0,1.39,.17,2.28,.52,2.68,.34,.4,1.03,.6,2.07,.6h.13l-.02,1.08c-.62-.05-1.22-.1-1.8-.12-.58-.03-1.13-.04-1.67-.04s-1.09,.01-1.67,.04c-.58,.03-1.19,.07-1.85,.12v-1.08h.2c1.88,0,2.83-1.22,2.85-3.65v-.03l.16-15.48v-.26c0-1.04-.16-1.7-.47-2s-.98-.45-2-.45h-.23v-1.1c.48,.04,.98,.08,1.51,.1,.53,.02,1.1,.03,1.73,.03s1.21-.01,1.76-.03c.55-.02,1.08-.05,1.6-.1l6.78,19.03,6.79-19.03c.47,.04,.97,.08,1.49,.1s1.09,.03,1.7,.03,1.21-.01,1.75-.03c.55-.02,1.07-.05,1.57-.1v1.1h-.25c-1.04,0-1.71,.15-2.01,.45-.31,.3-.46,1.06-.46,2.27v16.43c0,1.22,.15,1.98,.46,2.28,.31,.3,.98,.45,2.01,.45h.25l-.02,1.08c-.75-.05-1.48-.1-2.18-.12-.7-.03-1.38-.04-2.02-.04s-1.34,.01-2.05,.04c-.71,.03-1.47,.07-2.28,.12v-1.08h.23c1.04,0,1.71-.16,2.01-.47,.31-.31,.46-1.07,.46-2.27v-18.74h-.13l-7.94,22.26h-.67l-7.91-22.26h-.28l-.13,17.76Z"/><path class="cls-1" d="M68.46,61.08l-.02-1.08h.28c.61,0,1.07-.12,1.38-.37s.6-.73,.86-1.46l7.91-21.46h.7l7.74,21.46c.26,.72,.55,1.21,.87,1.46,.32,.25,.78,.38,1.39,.38h.26v1.08c-.77-.05-1.5-.1-2.18-.12-.68-.03-1.33-.04-1.95-.04s-1.28,.01-1.97,.04c-.69,.03-1.43,.07-2.2,.12l-.02-1.08h.16c.73,0,1.27-.11,1.6-.34,.34-.22,.51-.58,.51-1.07,0-.17,0-.34-.02-.48-.02-.15-.04-.28-.07-.38l-1.87-5.56h-7.32l-1.31,3.65c-.29,.84-.49,1.44-.57,1.79-.09,.35-.13,.66-.13,.92,0,.53,.13,.91,.4,1.11,.27,.21,.76,.33,1.48,.38l-.02,1.06c-.55-.05-1.07-.1-1.56-.12-.5-.03-.96-.04-1.4-.04-.46,0-.93,.01-1.41,.04-.48,.03-.99,.07-1.54,.12Zm6.35-10.02h6.61l-3.19-9.46-3.42,9.46Z"/></g><g><path class="cls-1" d="M162.9,57.27c0,1.21,.16,1.97,.48,2.27,.32,.31,1.03,.46,2.14,.46h.57l-.02,1.08c-.85-.05-1.66-.1-2.44-.12-.78-.03-1.52-.04-2.24-.04s-1.47,.01-2.26,.04c-.79,.03-1.63,.07-2.52,.12l-.02-1.08h.57c1.1,0,1.81-.15,2.14-.46,.32-.31,.48-1.06,.48-2.27v-19.15h-2.85c-1.83,0-3.14,.37-3.92,1.1-.78,.73-1.28,2.04-1.51,3.93h-.83l.7-6.12h19.94l.7,6.12h-.83c-.25-1.9-.76-3.21-1.54-3.94-.77-.73-2.07-1.09-3.9-1.09h-2.85v19.15Z"/><path class="cls-1" d="M183.64,61.38c-1.38,0-2.64-.26-3.76-.78-1.12-.52-2.12-1.3-2.99-2.33-.94-1.1-1.64-2.4-2.12-3.9-.47-1.5-.71-3.18-.71-5.05,0-1.36,.13-2.64,.38-3.84,.25-1.19,.62-2.28,1.11-3.26,.86-1.72,2.03-3.07,3.49-4.04,1.46-.97,3.06-1.46,4.81-1.46,2.91,0,5.24,1.11,6.97,3.34s2.6,5.23,2.6,9c0,1.89-.27,3.63-.81,5.22s-1.33,2.96-2.36,4.09c-.9,.99-1.91,1.74-3.02,2.25-1.11,.51-2.31,.76-3.59,.76Zm.03-1.03c2.07,0,3.72-1.02,4.95-3.05,1.23-2.04,1.84-4.78,1.84-8.24s-.6-6.19-1.81-8.22c-1.21-2.03-2.82-3.04-4.83-3.04s-3.73,1.01-4.95,3.04-1.84,4.77-1.84,8.22,.6,6.21,1.81,8.24,2.82,3.05,4.83,3.05Z"/><path class="cls-1" d="M208.39,57.27c0,1.21,.16,1.97,.48,2.27,.32,.31,1.03,.46,2.14,.46h.57l-.02,1.08c-.85-.05-1.66-.1-2.44-.12-.78-.03-1.52-.04-2.24-.04s-1.47,.01-2.26,.04c-.79,.03-1.63,.07-2.52,.12l-.02-1.08h.57c1.1,0,1.81-.15,2.14-.46,.32-.31,.48-1.06,.48-2.27v-19.15h-2.85c-1.83,0-3.14,.37-3.92,1.1s-1.28,2.04-1.51,3.93h-.83l.7-6.12h19.93l.7,6.12h-.83c-.25-1.9-.76-3.21-1.54-3.94-.77-.73-2.07-1.09-3.9-1.09h-2.85v19.15Z"/><path class="cls-1" d="M234.76,61.49c-1.91,0-3.65-.36-5.2-1.08-1.55-.72-2.93-1.81-4.14-3.25-1.3-1.54-2.27-3.35-2.93-5.44s-.98-4.44-.98-7.04c0-1.9,.17-3.69,.52-5.35,.35-1.67,.86-3.18,1.54-4.55,1.19-2.4,2.8-4.28,4.82-5.64,2.02-1.35,4.24-2.03,6.65-2.03,4.03,0,7.25,1.55,9.65,4.66,2.4,3.1,3.6,7.29,3.6,12.55,0,2.63-.38,5.06-1.13,7.28-.75,2.22-1.84,4.12-3.26,5.71-1.25,1.38-2.64,2.43-4.18,3.14-1.54,.71-3.2,1.06-4.97,1.06Zm.04-1.44c2.86,0,5.14-1.42,6.84-4.26,1.7-2.84,2.55-6.67,2.55-11.49s-.83-8.63-2.5-11.46c-1.67-2.83-3.9-4.25-6.68-4.25s-5.16,1.41-6.85,4.23c-1.69,2.82-2.54,6.65-2.54,11.47s.83,8.65,2.5,11.49c1.67,2.84,3.9,4.26,6.68,4.26Z"/></g></svg>